# xmcd
# Track frame offsets:
# 150
# 11261
# 27603
# 39461
# 50498
# 65102
# 81184
# 93087
# 108160
# 125282
#
# Disc length: 1846 seconds
# Revision: 0
# Processed by: cddbd v1.4PL0 Copyright (c) Steve Scherf et al.
# Submitted via: VisiTrax 2.9.5.181 - For more info visit www.synapsa.com
#
DISCID=7807340a
DTITLE=Eddie Rabbitt - The Best Of Eddie Rabbitt
DYEAR=1900
DGENRE=
TTITLE0=Drinking My Baby Off My Mind
TTITLE1=Rocky Mountain Music
TTITLE2=Do You Right Tonight
TTITLE3=Two Dollars In The Jukebox
TTITLE4=I Can't Help Myself
TTITLE5=We Can't Go On Loving Like This
TTITLE6=Hearts On Fire
TTITLE7=You Don't Love Me Anymore
TTITLE8=I Just Want To Love You
TTITLE9=Which Ever Way But Loose
EXTD=
EXTT0=
EXTT1=
EXTT2=
EXTT3=
EXTT4=
EXTT5=
EXTT6=
EXTT7=
EXTT8=
EXTT9=
PLAYORDER=
